<svg width="32" height="19" viewBox="0 0 32 19" fill="none" xmlns="http://www.w3.org/2000/svg">
<path d="M18.17 3.95816C18.3194 3.95775 18.467 3.98386 18.6019 4.03455C18.7369 4.08523 18.8558 4.15922 18.95 4.25107L23.78 9.00107C23.927 9.14273 24.0074 9.32041 24.0074 9.50378C24.0074 9.68715 23.927 9.86483 23.78 10.0065L18.78 14.7565C18.6102 14.9182 18.3663 15.0198 18.1019 15.0391C17.8375 15.0584 17.5742 14.9938 17.37 14.8594C17.1657 14.725 17.0373 14.5319 17.0129 14.3226C16.9886 14.1133 17.0702 13.9048 17.24 13.7432L21.71 9.49982L17.39 5.25649C17.2677 5.14028 17.19 4.99878 17.1661 4.84872C17.1422 4.69866 17.1732 4.54633 17.2552 4.40974C17.3373 4.27316 17.467 4.15804 17.6291 4.07801C17.7912 3.99798 17.9789 3.95639 18.17 3.95816Z" fill="#DE4313"/>
<path d="M10.17 3.95816C10.3194 3.95775 10.467 3.98386 10.6019 4.03455C10.7369 4.08523 10.8558 4.15922 10.95 4.25107L15.78 9.00107C15.927 9.14273 16.0074 9.32041 16.0074 9.50378C16.0074 9.68715 15.927 9.86483 15.78 10.0065L10.78 14.7565C10.6102 14.9182 10.3663 15.0198 10.1019 15.0391C9.83746 15.0584 9.57418 14.9938 9.36996 14.8594C9.16574 14.725 9.03732 14.5319 9.01294 14.3226C8.98856 14.1133 9.07022 13.9048 9.23996 13.7432L13.71 9.49982L9.38996 5.25649C9.26768 5.14028 9.19 4.99878 9.16612 4.84872C9.14224 4.69866 9.17316 4.54633 9.25521 4.40974C9.33727 4.27316 9.46703 4.15804 9.62914 4.07801C9.79125 3.99798 9.97892 3.95639 10.17 3.95816Z" fill="#DE4313"/>
</svg>
