<svg width="32" height="19" viewBox="0 0 32 19" fill="none" xmlns="http://www.w3.org/2000/svg">
<path d="M13.83 15.0418C13.6806 15.0422 13.533 15.0161 13.3981 14.9655C13.2631 14.9148 13.1442 14.8408 13.05 14.7489L8.22004 9.99893C8.07296 9.85727 7.99255 9.67959 7.99255 9.49622C7.99255 9.31285 8.07296 9.13517 8.22004 8.99351L13.22 4.24351C13.3898 4.08184 13.6337 3.98017 13.8981 3.96087C14.1625 3.94157 14.4258 4.00622 14.63 4.14059C14.8343 4.27497 14.9627 4.46807 14.9871 4.6774C15.0114 4.88674 14.9298 5.09517 14.76 5.25684L10.29 9.50018L14.61 13.7435C14.7323 13.8597 14.81 14.0012 14.8339 14.1513C14.8578 14.3013 14.8268 14.4537 14.7448 14.5903C14.6627 14.7268 14.533 14.842 14.3709 14.922C14.2088 15.002 14.0211 15.0436 13.83 15.0418Z" fill="#DE4313"/>
<path d="M21.83 15.0418C21.6806 15.0422 21.533 15.0161 21.3981 14.9655C21.2631 14.9148 21.1442 14.8408 21.05 14.7489L16.22 9.99893C16.073 9.85727 15.9926 9.67959 15.9926 9.49622C15.9926 9.31285 16.073 9.13517 16.22 8.99351L21.22 4.24351C21.3898 4.08184 21.6337 3.98017 21.8981 3.96087C22.1625 3.94157 22.4258 4.00622 22.63 4.14059C22.8343 4.27497 22.9627 4.46807 22.9871 4.6774C23.0114 4.88674 22.9298 5.09517 22.76 5.25684L18.29 9.50018L22.61 13.7435C22.7323 13.8597 22.81 14.0012 22.8339 14.1513C22.8578 14.3013 22.8268 14.4537 22.7448 14.5903C22.6627 14.7268 22.533 14.842 22.3709 14.922C22.2088 15.002 22.0211 15.0436 21.83 15.0418Z" fill="#DE4313"/>
</svg>
