<svg width="26" height="25" viewBox="0 0 26 25" fill="none" xmlns="http://www.w3.org/2000/svg">
<path d="M19.6272 25C18.2582 25 16.8164 24.686 15.3262 24.0814C13.8723 23.4884 12.4063 22.6744 10.9767 21.686C9.55918 20.686 8.19012 19.5698 6.89376 18.3488C5.60951 17.1047 4.44641 15.7907 3.41659 14.4419C2.37465 13.0465 1.53868 11.6512 0.945014 10.3023C0.315005 8.86046 0 7.46512 0 6.15116C0 5.24419 0.169618 4.38372 0.496738 3.5814C0.835974 2.75581 1.38117 1.98837 2.12022 1.32558C3.05312 0.441861 4.11929 0 5.25816 0C5.73066 0 6.21528 0.104651 6.62721 0.290698C7.09972 0.5 7.49953 0.813953 7.79031 1.23256L10.6011 5.03488C10.8555 5.37209 11.0494 5.69767 11.1827 6.02326C11.3402 6.37209 11.425 6.72093 11.425 7.05814C11.425 7.5 11.2917 7.93023 11.0373 8.33721C10.8555 8.65116 10.5769 8.98837 10.2255 9.32558L9.40168 10.1512C9.41379 10.186 9.42591 10.2093 9.43802 10.2326C9.58341 10.4767 9.87418 10.8953 10.4315 11.5233C11.0252 12.1744 11.5825 12.7674 12.1398 13.314C12.8546 13.9884 13.4483 14.5233 14.0056 14.9651C14.6962 15.5233 15.1445 15.8023 15.411 15.9302L15.3868 15.9884L16.2712 15.1512C16.6468 14.7907 17.0103 14.5233 17.3616 14.3488C18.028 13.9535 18.8761 13.8837 19.7241 14.2209C20.0391 14.3488 20.3784 14.5233 20.7418 14.7674L24.7642 17.5116C25.2125 17.8023 25.5396 18.1744 25.7335 18.6163C25.9152 19.0581 26 19.4651 26 19.8721C26 20.4302 25.8667 20.9884 25.6123 21.5116C25.3579 22.0349 25.0429 22.4884 24.6431 22.907C23.9525 23.6395 23.2013 24.1628 22.329 24.5C21.493 24.8256 20.5843 25 19.6272 25ZM5.25816 1.74419C4.5918 1.74419 3.97391 2.02326 3.38024 2.5814C2.82293 3.0814 2.43523 3.62791 2.19292 4.22093C1.93849 4.82558 1.81733 5.46512 1.81733 6.15116C1.81733 7.23256 2.08388 8.40698 2.61696 9.61628C3.16216 10.8488 3.92544 12.1279 4.89469 13.407C5.86393 14.686 6.96645 15.9302 8.17801 17.1047C9.38956 18.2558 10.698 19.3256 12.0429 20.2674C13.3514 21.186 14.6962 21.9302 16.0289 22.4651C18.1007 23.314 20.0391 23.5116 21.6384 22.8721C22.2563 22.6279 22.8015 22.2558 23.2982 21.7209C23.5769 21.4302 23.795 21.1163 23.9767 20.7442C24.1221 20.4535 24.1948 20.1512 24.1948 19.8488C24.1948 19.6628 24.1584 19.4767 24.0615 19.2674C24.0252 19.1977 23.9525 19.0698 23.7223 18.9186L19.6999 16.1744C19.4576 16.0116 19.2395 15.8953 19.0336 15.814C18.767 15.7093 18.658 15.6047 18.246 15.8488C18.0037 15.9651 17.7856 16.1395 17.5433 16.3721L16.6226 17.2442C16.15 17.686 15.4231 17.7907 14.8658 17.593L14.5387 17.4535C14.0419 17.1977 13.4604 16.8023 12.8183 16.2791C12.2367 15.8023 11.6067 15.2442 10.8434 14.5233C10.2498 13.9419 9.65611 13.3256 9.03821 12.6395C8.46878 12 8.05685 11.4535 7.80242 11L7.65704 10.6512C7.58434 10.3837 7.56011 10.2326 7.56011 10.0698C7.56011 9.65116 7.71761 9.27907 8.0205 8.98837L8.92917 8.0814C9.17148 7.84884 9.35322 7.62791 9.47437 7.43023C9.5713 7.27907 9.60764 7.15116 9.60764 7.03488C9.60764 6.94186 9.5713 6.80233 9.51072 6.66279C9.42591 6.47674 9.29264 6.26744 9.12302 6.04651L6.31221 2.23256C6.19105 2.06977 6.04567 1.95349 5.86393 1.87209C5.67008 1.7907 5.46412 1.74419 5.25816 1.74419ZM15.3868 16L15.1929 16.7907L15.52 15.9767C15.4595 15.9651 15.411 15.9767 15.3868 16Z" fill="white"/>
</svg>
