<svg width="30" height="26" viewBox="0 0 30 26" fill="none" xmlns="http://www.w3.org/2000/svg">
<path d="M13.5957 16.8358L10.8164 19.2409C10.2305 19.7479 9.29913 19.7479 8.69822 19.2539C8.53297 19.1109 8.36772 18.9809 8.20247 18.8378C6.65512 17.4858 5.25799 16.0687 4.0111 14.5867C2.77922 13.1046 1.78772 11.6225 1.06662 10.1535C0.360548 8.67139 0 7.25433 0 5.90227C0 5.01823 0.180274 4.17319 0.540822 3.39315C0.90137 2.60012 1.47224 1.87208 2.26845 1.22206C3.22991 0.403018 4.28151 0 5.3932 0C5.81384 0 6.23448 0.0780036 6.61005 0.234011C7.00064 0.390018 7.34617 0.624028 7.61658 0.962043L11.1019 5.21324C11.3723 5.53825 11.5676 5.83726 11.7028 6.12328C11.838 6.39629 11.9131 6.6693 11.9131 6.91631C11.9131 7.22833 11.8079 7.54034 11.5976 7.83935C11.4023 8.13837 11.1169 8.45038 10.7563 8.76239L9.61461 9.78944C9.44936 9.93245 9.37425 10.1015 9.37425 10.3095C9.37425 10.4135 9.38927 10.5045 9.41932 10.6085C9.46439 10.7125 9.50945 10.7905 9.5395 10.8685C9.80991 11.2975 10.2756 11.8565 10.9366 12.5326C11.6127 13.2086 12.3337 13.8976 13.1149 14.5867C13.2652 14.7167 13.4304 14.8467 13.5806 14.9767C14.1816 15.4837 14.1966 16.3157 13.5957 16.8358Z" fill="#DE4313"/>
<path d="M29.9997 21.2289C29.9997 21.5929 29.9246 21.9699 29.7744 22.3339C29.7293 22.4379 29.6843 22.5419 29.6242 22.6459C29.3688 23.1139 29.0383 23.556 28.6026 23.972C27.8665 24.674 27.0553 25.181 26.1389 25.5061C26.1238 25.5061 26.1088 25.5191 26.0938 25.5191C25.2074 25.8311 24.246 26.0001 23.2094 26.0001C21.6771 26.0001 20.0396 25.6881 18.312 25.051C16.5843 24.414 14.8567 23.556 13.1441 22.4769C12.5582 22.0999 11.9723 21.7229 11.4165 21.3199L16.329 17.0687C16.7496 17.3417 17.1252 17.5497 17.4406 17.6927C17.5158 17.7187 17.6059 17.7577 17.7111 17.7967C17.8312 17.8357 17.9514 17.8487 18.0866 17.8487C18.342 17.8487 18.5373 17.7707 18.7026 17.6277L19.8443 16.6527C20.2199 16.3276 20.5804 16.0806 20.9259 15.9246C21.2715 15.7426 21.617 15.6516 21.9926 15.6516C22.278 15.6516 22.5785 15.7036 22.909 15.8206C23.2395 15.9376 23.585 16.1066 23.9606 16.3276L28.9331 19.3828C29.3237 19.6168 29.5941 19.8898 29.7594 20.2148C29.9096 20.5398 29.9997 20.8648 29.9997 21.2289Z" fill="#DE4313"/>
</svg>
