<svg width="30" height="31" viewBox="0 0 30 31" fill="none" xmlns="http://www.w3.org/2000/svg">
<path d="M21.0222 4.5209C21.0222 4.34962 20.9571 4.18535 20.8411 4.06423C20.7251 3.94311 20.5679 3.87507 20.4039 3.87507H17.3124C15.7557 3.79407 14.2315 4.35995 13.073 5.44907C11.9144 6.53819 11.2157 8.062 11.1294 9.68757V13.1751H8.03786C7.87387 13.1751 7.71661 13.2431 7.60065 13.3642C7.4847 13.4853 7.41956 13.6496 7.41956 13.8209V17.1792C7.41956 17.3505 7.4847 17.5148 7.60065 17.6359C7.71661 17.757 7.87387 17.8251 8.03786 17.8251H11.1294V26.4792C11.1294 26.6505 11.1945 26.8148 11.3105 26.9359C11.4264 27.057 11.5837 27.1251 11.7477 27.1251H15.4575C15.6215 27.1251 15.7787 27.057 15.8947 26.9359C16.0106 26.8148 16.0758 26.6505 16.0758 26.4792V17.8251H19.3157C19.4532 17.8271 19.5874 17.7813 19.6972 17.6947C19.8069 17.6081 19.8859 17.4859 19.9216 17.3472L20.812 13.9888C20.8366 13.8934 20.8399 13.7933 20.8216 13.6964C20.8034 13.5994 20.7641 13.5081 20.7068 13.4295C20.6494 13.3509 20.5756 13.2871 20.4909 13.243C20.4062 13.1988 20.313 13.1756 20.2184 13.1751H16.0758V9.68757C16.1065 9.36785 16.2503 9.07159 16.4789 8.85663C16.7076 8.64167 17.0048 8.52346 17.3124 8.52507H20.4039C20.5679 8.52507 20.7251 8.45703 20.8411 8.33591C20.9571 8.21479 21.0222 8.05052 21.0222 7.87924V4.5209Z" fill="white"/>
</svg>
