<svg width="23" height="12" viewBox="0 0 23 12" fill="none" xmlns="http://www.w3.org/2000/svg">
<path d="M7.66667 11.1429C7.66667 10.9155 7.76763 10.6975 7.94736 10.5368C8.12708 10.376 8.37083 10.2857 8.625 10.2857H14.375C14.6292 10.2857 14.8729 10.376 15.0526 10.5368C15.2324 10.6975 15.3333 10.9155 15.3333 11.1429C15.3333 11.3702 15.2324 11.5882 15.0526 11.7489C14.8729 11.9097 14.6292 12 14.375 12H8.625C8.37083 12 8.12708 11.9097 7.94736 11.7489C7.76763 11.5882 7.66667 11.3702 7.66667 11.1429ZM3.83333 6C3.83333 5.77267 3.9343 5.55465 4.11402 5.39391C4.29375 5.23316 4.5375 5.14286 4.79167 5.14286H18.2083C18.4625 5.14286 18.7063 5.23316 18.886 5.39391C19.0657 5.55465 19.1667 5.77267 19.1667 6C19.1667 6.22733 19.0657 6.44535 18.886 6.60609C18.7063 6.76684 18.4625 6.85714 18.2083 6.85714H4.79167C4.5375 6.85714 4.29375 6.76684 4.11402 6.60609C3.9343 6.44535 3.83333 6.22733 3.83333 6ZM0 0.857143C0 0.629814 0.100967 0.411797 0.28069 0.251051C0.460412 0.090306 0.704167 0 0.958333 0H22.0417C22.2958 0 22.5396 0.090306 22.7193 0.251051C22.899 0.411797 23 0.629814 23 0.857143C23 1.08447 22.899 1.30249 22.7193 1.46323C22.5396 1.62398 22.2958 1.71429 22.0417 1.71429H0.958333C0.704167 1.71429 0.460412 1.62398 0.28069 1.46323C0.100967 1.30249 0 1.08447 0 0.857143Z" fill="black"/>
</svg>
