<svg width="32" height="37" viewBox="0 0 32 37" fill="none" xmlns="http://www.w3.org/2000/svg">
<path d="M26 18.5C26 18.1933 26.1054 17.8992 26.2929 17.6824C26.4804 17.4656 26.7348 17.3438 27 17.3438C27.2652 17.3438 27.5196 17.4656 27.7071 17.6824C27.8946 17.8992 28 18.1933 28 18.5V31.2188C28 31.5254 27.8946 31.8195 27.7071 32.0363C27.5196 32.2532 27.2652 32.375 27 32.375H5C4.73478 32.375 4.48043 32.2532 4.29289 32.0363C4.10536 31.8195 4 31.5254 4 31.2188V5.78125C4 5.47459 4.10536 5.1805 4.29289 4.96366C4.48043 4.74682 4.73478 4.625 5 4.625H16C16.2652 4.625 16.5196 4.74682 16.7071 4.96366C16.8946 5.1805 17 5.47459 17 5.78125C17 6.08791 16.8946 6.382 16.7071 6.59884C16.5196 6.81568 16.2652 6.9375 16 6.9375H6V30.0625H26V18.5Z" fill="#DE4313"/>
<path d="M14.686 20.0263L16.336 19.7534L26.472 8.03597C26.5675 7.92931 26.6437 7.80172 26.6961 7.66065C26.7485 7.51959 26.7761 7.36786 26.7772 7.21434C26.7784 7.06081 26.7531 6.90856 26.7028 6.76646C26.6525 6.62436 26.5783 6.49526 26.4844 6.3867C26.3905 6.27813 26.2788 6.19228 26.1559 6.13414C26.033 6.076 25.9013 6.04675 25.7686 6.04808C25.6358 6.04942 25.5046 6.08131 25.3826 6.14191C25.2606 6.20251 25.1502 6.29059 25.058 6.40103L14.92 18.1185L14.684 20.0263H14.686ZM27.886 4.76378C28.1647 5.08591 28.3859 5.4684 28.5368 5.88939C28.6877 6.31039 28.7653 6.76163 28.7653 7.21734C28.7653 7.67305 28.6877 8.12429 28.5368 8.54529C28.3859 8.96628 28.1647 9.34877 27.886 9.6709L17.516 21.6612C17.363 21.8387 17.1644 21.9539 16.95 21.9896L13.65 22.5353C13.4962 22.5609 13.3394 22.5446 13.1919 22.4879C13.0445 22.4311 12.9106 22.3355 12.8007 22.2084C12.6908 22.0814 12.6081 21.9265 12.559 21.7561C12.5099 21.5856 12.4959 21.4043 12.518 21.2265L12.99 17.4108C13.0203 17.1632 13.1192 16.9335 13.272 16.7564L23.644 4.76609C24.2066 4.1158 24.9695 3.75049 25.765 3.75049C26.5605 3.75049 27.3234 4.1158 27.886 4.76609V4.76378Z" fill="#DE4313"/>
</svg>
