<svg width="30" height="29" viewBox="0 0 30 29" fill="none" xmlns="http://www.w3.org/2000/svg">
<path d="M20.6299 2.875H9.23067C5.55241 2.875 2.57056 5.6716 2.57056 9.12133V19.8123C2.57056 23.262 5.55241 26.0586 9.23067 26.0586H20.6298C24.3081 26.0586 27.29 23.262 27.29 19.8123V9.12133C27.29 5.6716 24.3082 2.875 20.6299 2.875Z" stroke="white" stroke-width="3.96789" stroke-miterlimit="10"/>
<path d="M14.9303 20.0627C18.2257 20.0627 20.8971 17.5573 20.8971 14.4667C20.8971 11.3761 18.2257 8.87061 14.9303 8.87061C11.635 8.87061 8.96356 11.3761 8.96356 14.4667C8.96356 17.5573 11.635 20.0627 14.9303 20.0627Z" stroke="white" stroke-width="3.96789" stroke-miterlimit="10"/>
<path d="M22.1756 8.87074C22.8817 8.87074 23.4542 8.33386 23.4542 7.67158C23.4542 7.0093 22.8817 6.47241 22.1756 6.47241C21.4694 6.47241 20.897 7.0093 20.897 7.67158C20.897 8.33386 21.4694 8.87074 22.1756 8.87074Z" fill="black"/>
</svg>
