<svg width="32" height="30" viewBox="0 0 32 30" fill="none" xmlns="http://www.w3.org/2000/svg">
<path d="M23.4116 0H7.85011C3.55512 0 0.0693359 3.34667 0.0693359 7.47374V16.4482V17.949C0.0693359 22.076 3.55512 25.4227 7.85011 25.4227H10.1843C10.6045 25.4227 11.1647 25.6928 11.4293 26.023L13.7635 29.0095C14.7906 30.3302 16.4712 30.3302 17.4983 29.0095L19.8325 26.023C20.1282 25.6478 20.595 25.4227 21.0774 25.4227H23.4116C27.7066 25.4227 31.1924 22.076 31.1924 17.949V7.47374C31.1924 3.34667 27.7066 0 23.4116 0ZM9.40626 15.0075C8.53481 15.0075 7.85011 14.3322 7.85011 13.5068C7.85011 12.6813 8.55037 12.006 9.40626 12.006C10.2621 12.006 10.9624 12.6813 10.9624 13.5068C10.9624 14.3322 10.2777 15.0075 9.40626 15.0075ZM15.6309 15.0075C14.7594 15.0075 14.0747 14.3322 14.0747 13.5068C14.0747 12.6813 14.775 12.006 15.6309 12.006C16.4868 12.006 17.187 12.6813 17.187 13.5068C17.187 14.3322 16.5023 15.0075 15.6309 15.0075ZM21.8555 15.0075C20.984 15.0075 20.2993 14.3322 20.2993 13.5068C20.2993 12.6813 20.9996 12.006 21.8555 12.006C22.7114 12.006 23.4116 12.6813 23.4116 13.5068C23.4116 14.3322 22.7269 15.0075 21.8555 15.0075Z" fill="#DE4313"/>
</svg>
