<svg width="30" height="26" viewBox="0 0 30 26" fill="none" xmlns="http://www.w3.org/2000/svg">
<path d="M21.0434 0H9.14751C3.98033 0 0.899902 2.821 0.899902 7.553V18.434C0.899902 23.179 3.98033 26 9.14751 26H21.0292C26.1963 26 29.2768 23.179 29.2768 18.447V7.553C29.291 2.821 26.2105 0 21.0434 0ZM23.6128 13.975H16.1601V20.8C16.1601 21.333 15.6775 21.775 15.0954 21.775C14.5134 21.775 14.0308 21.333 14.0308 20.8V13.975H6.57812C5.9961 13.975 5.51345 13.533 5.51345 13C5.51345 12.467 5.9961 12.025 6.57812 12.025H14.0308V5.2C14.0308 4.667 14.5134 4.225 15.0954 4.225C15.6775 4.225 16.1601 4.667 16.1601 5.2V12.025H23.6128C24.1948 12.025 24.6774 12.467 24.6774 13C24.6774 13.533 24.1948 13.975 23.6128 13.975Z" fill="#DE4313"/>
</svg>
