<svg width="28" height="21" viewBox="0 0 28 21" fill="none" xmlns="http://www.w3.org/2000/svg">
<path d="M20.5493 13.5755C22.2438 11.8411 23.0027 9.69071 22.6743 7.55461C22.3458 5.4185 20.9543 3.45418 18.778 2.05464C16.6017 0.655095 13.8011 -0.0764598 10.9366 0.00633226C8.07213 0.0891243 5.35494 0.980157 3.32867 2.50117C1.30239 4.02218 0.116455 6.06099 0.00813113 8.20972C-0.100193 10.3585 0.87708 12.4586 2.74443 14.0901C4.61178 15.7215 7.2315 16.764 10.0795 17.0088C12.9274 17.2536 15.7936 16.6828 18.1046 15.4105H18.1029C18.1554 15.463 18.2114 15.5129 18.2744 15.5615L25.0116 20.6151C25.3398 20.8614 25.7849 20.9999 26.2491 21C26.7133 21.0001 27.1586 20.8619 27.4869 20.6158C27.8153 20.3697 27.9998 20.0358 28 19.6876C28.0002 19.3394 27.8159 19.0054 27.4878 18.7591L20.7505 13.7054C20.688 13.6579 20.6207 13.6153 20.5493 13.5755ZM21.0008 8.5297C21.0008 9.47778 20.7518 10.4166 20.2682 11.2925C19.7845 12.1684 19.0755 12.9643 18.1818 13.6347C17.2881 14.305 16.227 14.8368 15.0593 15.1996C13.8916 15.5625 12.6401 15.7492 11.3761 15.7492C10.1122 15.7492 8.86067 15.5625 7.69295 15.1996C6.52524 14.8368 5.46423 14.305 4.5705 13.6347C3.67677 12.9643 2.96782 12.1684 2.48414 11.2925C2.00045 10.4166 1.75151 9.47778 1.75151 8.5297C1.75151 6.61497 2.76553 4.77866 4.5705 3.42474C6.37547 2.07083 8.82353 1.3102 11.3761 1.3102C13.9288 1.3102 16.3768 2.07083 18.1818 3.42474C19.9868 4.77866 21.0008 6.61497 21.0008 8.5297Z" fill="black"/>
</svg>
