<svg width="30" height="25" viewBox="0 0 30 25" fill="none" xmlns="http://www.w3.org/2000/svg">
<path d="M28 1.78087C28 1.78087 25.6754 3.15388 24.3827 3.54305C23.6889 2.74547 22.7668 2.18017 21.7412 1.9236C20.7156 1.66703 19.6359 1.73157 18.6482 2.10849C17.6605 2.48541 16.8122 3.15652 16.2185 4.03106C15.6246 4.9056 15.3138 5.94137 15.328 6.9983V8.15004C13.3035 8.20252 11.2975 7.75362 9.48853 6.84332C7.67958 5.93301 6.12389 4.58956 4.96001 2.93262C4.96001 2.93262 0.352006 13.2984 10.72 17.9054C8.3475 19.5154 5.52121 20.3228 2.65601 20.2089C13.024 25.9676 25.696 20.2089 25.696 6.96374C25.695 6.64292 25.6641 6.3229 25.6038 6.00779C26.7796 4.84854 28 1.78087 28 1.78087Z" stroke="white" stroke-width="3.46371" stroke-linecap="round" stroke-linejoin="round"/>
</svg>
